<?xml version="1.0" standalone="no"?>
<!DOCTYPE svg PUBLIC "-//W3C//DTD SVG 20010904//EN"
 "http://www.w3.org/TR/2001/REC-SVG-20010904/DTD/svg10.dtd">
<svg version="1.0" xmlns="http://www.w3.org/2000/svg"
 width="201.000000pt" height="251.000000pt" viewBox="0 0 201.000000 251.000000"
 preserveAspectRatio="xMidYMid meet">

<g transform="translate(0.000000,251.000000) scale(0.100000,-0.100000)"
fill="#000000" stroke="none">
<path d="M524 2002 c-16 -8 -93 -23 -173 -34 -143 -19 -233 -46 -258 -78 -28
-35 -15 -78 56 -183 38 -56 80 -112 93 -125 18 -16 24 -30 20 -47 -4 -22 -1
-25 29 -26 l34 -1 -32 -9 c-34 -10 -40 -26 -23 -60 8 -13 7 -36 -1 -77 -10
-50 -8 -71 14 -183 15 -69 35 -149 46 -178 19 -48 20 -55 6 -107 -25 -96 -30
-276 -11 -371 36 -174 137 -351 228 -399 35 -18 101 -18 137 1 76 39 111 126
111 277 l0 99 33 -6 c22 -4 44 0 72 15 21 11 51 20 66 20 15 0 32 6 39 14 6 8
18 12 26 9 19 -7 18 -23 -1 -23 -34 0 -10 -19 58 -45 39 -15 128 -57 197 -92
122 -62 127 -64 170 -54 35 8 55 21 90 60 41 46 50 51 100 57 30 3 69 10 86
15 70 21 136 130 137 228 2 78 -31 266 -56 323 -18 43 -22 46 -48 41 l-29 -6
-1 114 c-1 241 -5 368 -11 374 -3 3 -65 -9 -137 -29 l-131 -34 -14 46 c-12 43
-16 47 -42 44 -54 -5 -57 -9 -50 -56 5 -31 3 -46 -7 -54 -8 -7 -95 -26 -193
-42 -98 -17 -192 -34 -209 -38 -16 -4 -56 -6 -88 -4 -46 2 -58 6 -53 18 6 17
-29 20 -39 4 -6 -10 -53 -8 -129 7 l-30 5 35 20 c23 13 27 18 12 14 -13 -2
-26 0 -29 5 -3 5 -16 9 -30 9 -14 0 -23 -4 -20 -9 10 -16 -5 -40 -21 -34 -12
5 -12 7 -1 14 9 6 6 9 -12 10 -22 0 -23 1 -5 8 13 5 -4 10 -54 15 -40 3 -77 4
-82 1 -5 -3 -6 1 -3 10 5 13 21 15 113 10 58 -4 128 -11 154 -16 58 -11 66 -8
59 26 -2 14 0 25 6 25 20 0 17 35 -5 53 -12 10 -25 26 -28 37 -3 10 -24 27
-45 37 -22 10 -40 24 -40 31 0 6 -5 12 -10 12 -6 0 -30 9 -55 21 -24 11 -49
18 -55 14 -5 -3 -10 -2 -10 3 0 10 -91 33 -127 33 -12 -1 -25 4 -29 10 -8 14
-27 -14 -43 -63 -15 -44 -22 -46 -52 -15 -61 64 -107 153 -89 171 16 16 202
54 238 49 23 -4 32 -11 32 -24 0 -23 18 -25 26 -4 4 9 19 15 40 15 33 0 46 14
22 23 -7 3 -1 6 15 6 15 1 27 -3 27 -8 0 -5 7 -12 16 -15 8 -3 12 -2 9 4 -8
13 28 13 41 1 27 -27 245 -57 230 -32 -3 4 -26 14 -51 21 -25 7 -48 17 -51 21
-3 5 -17 9 -32 10 -15 0 -36 5 -47 10 -14 7 -2 8 40 5 54 -4 58 -3 41 9 -12 9
-29 12 -44 8 -14 -3 -23 -2 -19 3 3 5 -23 18 -58 30 -57 18 -66 19 -91 6z
m-177 -514 c-2 -13 -4 -3 -4 22 0 25 2 35 4 23 2 -13 2 -33 0 -45z m120 -54
c-3 -3 -12 -4 -19 -1 -8 3 -5 6 6 6 11 1 17 -2 13 -5z m1183 -145 c0 -5 -4 -9
-10 -9 -5 0 -10 7 -10 16 0 8 5 12 10 9 6 -3 10 -10 10 -16z m-191 -20 c39
-18 42 -23 36 -47 -4 -15 -8 -42 -9 -61 -1 -22 -8 -38 -21 -45 -11 -6 -26 -19
-33 -28 -14 -19 -52 -25 -52 -8 0 6 -10 10 -23 10 -15 0 -29 9 -36 24 -14 26
-51 25 -51 0 0 -16 -47 -37 -62 -28 -5 3 -7 12 -4 20 3 8 3 14 1 14 -5 0 -36
-57 -35 -65 1 -25 -3 -26 -20 -7 -12 12 -25 22 -31 22 -6 0 -8 9 -4 19 6 21
-10 38 -20 21 -3 -5 -15 -15 -25 -20 -15 -8 -24 -6 -39 9 -36 36 4 95 48 72
14 -8 22 -7 31 4 7 8 27 15 45 15 18 0 38 7 45 15 7 8 24 15 37 15 17 0 27 7
30 20 7 27 28 20 29 -9 2 -25 14 -42 14 -18 0 9 12 24 28 34 15 10 33 23 40
30 18 18 31 16 81 -8z m142 12 c-7 -5 -11 -13 -7 -19 3 -5 -1 -12 -9 -16 -10
-3 -15 1 -15 13 0 22 9 31 29 31 13 0 13 -2 2 -9z m-61 -41 c0 -5 -4 -11 -9
-15 -6 -3 -6 -17 1 -36 8 -22 7 -34 -1 -42 -8 -8 -11 -7 -12 4 -7 106 -7 108
7 102 8 -3 14 -9 14 -13z m80 -39 c0 -5 -7 -14 -15 -21 -16 -14 -18 -10 -9 14
6 17 24 22 24 7z m-1060 -167 c0 -12 7 -14 28 -9 21 4 36 0 58 -17 45 -35 104
-95 104 -106 0 -6 4 -12 8 -14 17 -7 63 -78 57 -87 -10 -18 -114 -43 -143 -36
-15 4 -64 45 -112 95 -90 94 -145 125 -175 100 -20 -17 -19 -5 2 27 26 40 72
63 126 63 36 0 47 -4 47 -16z m550 6 c0 -5 -4 -10 -10 -10 -5 0 -10 5 -10 10
0 6 5 10 10 10 6 0 10 -4 10 -10z m126 -126 c-3 -9 -6 -20 -6 -25 0 -5 -9 -9
-20 -9 -10 0 -30 -5 -44 -11 -30 -14 -65 -4 -48 13 10 10 92 43 116 47 4 0 5
-6 2 -15z m-136 -24 c0 -5 -4 -10 -9 -10 -6 0 -13 5 -16 10 -3 6 1 10 9 10 9
0 16 -4 16 -10z m361 -290 c65 -105 69 -113 69 -143 0 -26 -40 -77 -61 -77
-12 0 -49 75 -49 99 0 22 -40 95 -47 87 -3 -3 2 -24 12 -48 25 -62 45 -131 40
-137 -10 -10 -53 19 -125 84 -41 37 -92 79 -114 92 -22 15 -35 28 -29 34 14
14 124 49 154 49 20 0 33 -8 44 -27 l16 -28 -6 32 c-8 40 -1 53 29 53 18 0 34
-16 67 -70z m-646 19 c13 -13 -9 -32 -31 -27 -11 2 -20 13 -22 27 -3 20 -1 22
20 16 13 -4 27 -11 33 -16z m35 -64 c-13 -16 -50 -21 -50 -7 0 15 13 22 38 22
21 0 22 -2 12 -15z"/>
<path d="M1390 1219 c0 -5 5 -7 10 -4 6 3 10 8 10 11 0 2 -4 4 -10 4 -5 0 -10
-5 -10 -11z"/>
<path d="M1226 1171 c-4 -7 -5 -15 -2 -18 9 -9 19 4 14 18 -4 11 -6 11 -12 0z"/>
<path d="M1305 1170 c-3 -5 -2 -10 4 -10 5 0 13 5 16 10 3 6 2 10 -4 10 -5 0
-13 -4 -16 -10z"/>
<path d="M1435 1170 c-3 -5 -1 -10 4 -10 6 0 11 5 11 10 0 6 -2 10 -4 10 -3 0
-8 -4 -11 -10z"/>
<path d="M1134 1157 c-8 -21 2 -35 16 -21 5 5 6 15 0 24 -8 12 -10 12 -16 -3z"/>
<path d="M1040 1130 c0 -11 7 -20 15 -20 8 0 15 9 15 20 0 11 -7 20 -15 20 -8
0 -15 -9 -15 -20z"/>
<path d="M1390 1100 c0 -5 5 -10 11 -10 5 0 7 5 4 10 -3 6 -8 10 -11 10 -2 0
-4 -4 -4 -10z"/>
<path d="M892 1912 c-38 -32 -39 -38 -11 -45 32 -8 77 51 51 67 -4 2 -22 -8
-40 -22z"/>
<path d="M1170 1926 c0 -9 30 -14 35 -6 4 6 -3 10 -14 10 -12 0 -21 -2 -21 -4z"/>
<path d="M756 1522 c-4 -6 -4 -23 0 -37 4 -18 13 -25 30 -25 26 0 29 5 14 23
-6 7 -17 21 -24 31 -8 13 -15 15 -20 8z"/>
<path d="M680 1420 c20 -13 77 -13 85 0 4 6 -14 10 -47 10 -38 0 -49 -3 -38
-10z"/>
</g>
</svg>
