<svg xmlns="http://www.w3.org/2000/svg" id="Layer_2" data-name="Layer 2" viewBox="0 0 733.82 774.66"><g id="P&#xE1;g_Principal" data-name="P&#xE1;g Principal"><g><path d="M376.55,232.17c24.2-41.04,46.16-52.86,49.4-77.7,6.06-46.8-38.12-53.62-59.52-29.67-21.9,24.51-26.96,70.79-9.67,108.63,5.63,12.34,14.11,8.36,19.79-1.26" style="fill: #fff; stroke-width: 0px;"></path><path d="M357.25,542.5c-24.2,41.04-46.18,52.84-49.39,77.68-6.07,46.8,38.11,53.64,59.51,29.68,21.9-24.53,26.96-70.8,9.67-108.64-5.63-12.34-14.12-8.37-19.79,1.28" style="fill: #fff; stroke-width: 0px;"></path><path d="M726.42,332.84c13.19-39.15,8.58-82.62-12.6-119.34-11.86-20.54-28.21-37.06-46.04-46.51-43.91-23.3-90.33-24.67-138.43-4.74,6.34-38.55-1.52-81.32-29.86-113.5C472.16,17.77,432.19,0,389.81,0c-23.73,0-46.21,5.9-63.29,16.6-42.15,26.39-66.55,65.89-73.34,117.5-30.21-24.74-71.18-39.34-113.23-30.88-40.48,8.16-75.86,33.89-97.05,70.61-11.86,20.55-18,42.95-17.27,63.11,1.78,49.67,23.8,90.56,65.1,122.25-36.53,13.79-69.66,41.97-83.35,82.61-13.16,39.15-8.58,82.65,12.6,119.36,11.88,20.54,28.21,37.06,46.03,46.5,43.92,23.31,90.35,24.69,138.43,4.75-6.33,38.55,1.52,81.34,29.87,113.5,27.31,30.98,67.29,48.75,109.67,48.75,23.73,0,46.21-5.9,63.29-16.6,42.14-26.4,66.55-65.9,73.33-117.51,30.22,24.75,71.2,39.35,113.23,30.88,40.49-8.15,75.87-33.9,97.07-70.59,11.86-20.55,18-42.97,17.26-63.11-1.77-49.7-23.8-90.59-65.1-122.27,36.56-13.79,69.68-41.97,83.37-82.61M365.15,358.94c9.92-.61,18.95,3.96,24.5,11.39,3.22,4.28,5.28,9.49,5.62,15.24.91,14.65-9.49,27.24-23.63,29.64-.45.07-.9.17-1.35.23-.56.06-1.07.24-1.65.26-9.93.61-18.95-3.96-24.49-11.37-3.21-4.28-5.29-9.5-5.63-15.25-.92-14.66,9.5-27.25,23.63-29.65.45-.08.9-.16,1.35-.23.56-.06,1.07-.23,1.65-.26M343.56,84.15c36.84-30.34,89.75-22.94,113.35,14.49,21.08,33.43,23.58,75.71-24.61,126.04-22.71,23.71-50.07,66.17-60.38,85.24-9.36,17.34-20.59,13.98-31.33-2.91-15.59-24.46-31.62-69.5-34.17-111.23-3.09-50.42,15.62-93.89,37.14-111.63M161.87,165.05c39.5-1.53,77.37,17.44,96.86,84.33,9.19,31.52,32.3,76.44,43.66,94.9,10.32,16.78,1.79,24.81-18.19,25.68-28.99,1.25-76.01-7.39-113.43-26.04-45.22-22.54-73.51-60.48-78.11-87.96-7.87-47.06,25.02-89.18,69.21-90.91M116,559.13c-44.7-16.73-64.74-66.26-44.12-105.41,18.42-34.98,53.77-58.29,121.45-41.71,31.9,7.81,82.36,10.25,104.05,9.66,19.69-.56,22.38,10.85,13.14,28.6-13.4,25.72-44.41,62.13-79.27,85.22-42.14,27.89-89.13,33.42-115.24,23.65M390.24,690.5c-36.83,30.36-89.75,22.95-113.33-14.48-21.09-33.43-23.6-75.73,24.6-126.03,22.71-23.73,50.07-66.22,60.37-85.27,9.38-17.34,20.6-13.96,31.33,2.9,15.59,24.49,31.62,69.53,34.17,111.26,3.09,50.44-15.61,93.9-37.13,111.63M571.93,609.62c-39.49,1.53-77.36-17.44-96.85-84.33-9.2-31.53-32.3-76.45-43.66-94.92-10.34-16.78-1.8-24.81,18.19-25.68,28.98-1.27,76.01,7.39,113.43,26.04,45.22,22.54,73.51,60.49,78.1,87.97,7.88,47.08-24.99,89.19-69.21,90.92M661.93,320.92c-18.4,34.97-53.78,58.29-121.46,41.71-31.89-7.81-82.35-10.25-104.01-9.66-19.72.56-22.41-10.85-13.16-28.6,13.4-25.73,44.41-62.11,79.27-85.18,42.14-27.89,89.13-33.43,115.24-23.67,44.7,16.73,64.74,66.23,44.12,105.38" style="fill: #fff; stroke-width: 0px;"></path><path d="M594.04,255.65c-32.2-6.69-74.8,12.06-98.92,45.95-7.87,11.04-.19,16.4,11,16.49,47.63.44,68.84,13.57,91.97,3.93,43.56-18.14,27.38-59.82-4.06-66.37" style="fill: #fff; stroke-width: 0px;"></path><path d="M227.69,456.55c-47.64-.43-68.85-13.56-91.98-3.93-43.56,18.13-27.38,59.83,4.06,66.37,32.2,6.71,74.78-12.05,98.92-45.94,7.87-11.05.18-16.41-10.99-16.51" style="fill: #fff; stroke-width: 0px;"></path><path d="M505.26,455.49c-13.5-1.28-14.3,8.04-8.8,17.77,23.45,41.49,22.68,66.41,42.6,81.63,37.49,28.66,65.49-6.21,55.45-36.71-10.29-31.23-47.85-58.76-89.25-62.69" style="fill: #fff; stroke-width: 0px;"></path><path d="M228.55,319.15c13.5,1.28,14.3-8.04,8.78-17.78-23.44-41.46-22.68-66.37-42.58-81.6-37.5-28.64-65.5,6.22-55.46,36.7,10.29,31.23,47.84,58.74,89.26,62.68" style="fill: #fff; stroke-width: 0px;"></path></g></g></svg>